<?xml version="1.0" standalone="no"?>
<!DOCTYPE svg PUBLIC "-//W3C//DTD SVG 20010904//EN"
 "http://www.w3.org/TR/2001/REC-SVG-20010904/DTD/svg10.dtd">
<svg version="1.0" xmlns="http://www.w3.org/2000/svg"
 width="700.000000pt" height="700.000000pt" viewBox="0 0 700.000000 700.000000"
 preserveAspectRatio="xMidYMid meet">
<metadata>
Created by potrace 1.14, written by Peter Selinger 2001-2017
</metadata>
<g transform="translate(0.000000,700.000000) scale(0.100000,-0.100000)"
fill="#000000" stroke="none">
<path d="M3299 6806 c-2 -2 -33 -7 -69 -11 -67 -7 -107 -12 -150 -20 -14 -3
-38 -7 -55 -10 -117 -19 -407 -104 -510 -149 -364 -159 -608 -321 -852 -565
-450 -448 -695 -1037 -687 -1646 2 -124 9 -233 19 -285 3 -13 7 -42 11 -65 3
-22 10 -60 16 -85 5 -25 11 -53 13 -62 42 -205 167 -497 304 -708 287 -446
748 -810 1256 -993 200 -72 409 -124 575 -142 30 -4 82 -10 115 -15 66 -9 471
-6 550 5 455 57 842 199 1197 438 130 87 137 93 257 198 241 211 434 462 578
751 23 48 43 90 43 93 0 3 9 24 20 48 52 111 126 391 145 552 4 33 9 74 11 90
6 48 6 355 0 410 -14 126 -24 183 -52 305 -24 101 -56 213 -75 255 -5 11 -18
45 -29 75 -49 127 -157 323 -253 460 -179 255 -409 476 -682 656 -116 76 -312
177 -455 234 -93 37 -299 104 -352 114 -13 2 -45 10 -73 16 -27 6 -61 14 -75
16 -14 2 -34 6 -45 9 -11 2 -42 7 -70 10 -27 3 -66 8 -85 11 -40 7 -535 16
-541 10z m296 -215 c19 -1 20 -8 20 -137 l-1 -136 31 6 c102 20 264 134 330
235 16 23 31 40 35 39 50 -20 240 -113 240 -117 0 -17 -82 -128 -135 -182
-110 -112 -253 -193 -412 -232 l-90 -22 -1 -35 c-1 -65 5 -75 40 -77 284 -17
575 -112 811 -265 l68 -44 45 41 44 41 -48 81 c-96 160 -133 348 -102 524 17
96 18 100 43 95 48 -10 239 -64 244 -70 3 -3 1 -24 -5 -46 -13 -51 -9 -194 7
-245 17 -52 64 -146 73 -142 6 2 75 65 170 155 l37 35 53 -50 c29 -28 74 -70
100 -93 l48 -43 -33 -31 c-19 -17 -66 -61 -105 -98 l-72 -66 52 -25 c87 -40
123 -48 241 -52 52 -2 110 3 140 11 28 7 55 10 59 6 4 -4 25 -60 47 -125 26
-80 35 -120 28 -123 -45 -16 -162 -32 -244 -33 -163 -3 -336 40 -464 115 -52
31 -62 34 -77 22 -45 -36 -62 -52 -62 -60 0 -4 28 -41 61 -81 162 -190 266
-401 318 -640 12 -53 21 -99 21 -102 0 -3 29 -5 65 -5 l64 0 11 43 c35 141
114 279 219 384 58 58 187 153 208 153 8 0 35 -42 122 -191 l22 -37 -43 -25
c-107 -63 -203 -184 -238 -299 l-9 -28 148 0 148 0 -1 -132 -1 -132 -145 0
c-167 -1 -161 5 -110 -101 37 -78 125 -175 201 -221 32 -20 59 -41 59 -47 0
-5 -13 -34 -30 -63 -16 -30 -44 -79 -61 -109 l-31 -56 -56 32 c-85 47 -178
125 -238 198 -78 94 -155 253 -166 341 -3 23 -7 25 -64 26 l-60 2 -12 -102
c-14 -128 -42 -233 -96 -368 -44 -109 -124 -252 -181 -323 -50 -63 -49 -62 -8
-106 l39 -41 75 39 c149 78 277 110 437 110 97 0 225 -16 239 -31 5 -5 -46
-182 -67 -233 -8 -20 -13 -21 -36 -13 -37 14 -153 19 -222 8 -68 -10 -172 -43
-198 -63 -18 -13 -17 -16 26 -55 25 -23 71 -67 103 -97 l57 -55 -22 -20 c-13
-11 -55 -51 -94 -89 -40 -38 -76 -69 -82 -69 -5 0 -53 40 -106 90 -54 49 -101
90 -105 90 -11 0 -56 -102 -71 -160 -16 -59 -16 -173 0 -239 7 -29 11 -53 9
-55 -6 -4 -253 -76 -260 -76 -14 0 -41 143 -44 230 -5 150 34 290 117 428 21
34 38 66 38 70 0 4 -17 23 -39 43 l-38 37 -24 -22 c-42 -37 -93 -73 -185 -129
-174 -105 -371 -179 -566 -213 -57 -10 -105 -21 -108 -25 -3 -4 -3 -31 -2 -61
l4 -53 86 -21 c155 -39 298 -119 408 -228 64 -65 128 -151 120 -164 -2 -4 -57
-34 -120 -67 -98 -50 -118 -58 -126 -45 -25 41 -90 111 -135 145 -57 43 -154
91 -202 101 l-33 7 0 -137 0 -136 -140 0 -140 0 -1 30 c0 17 -1 77 -1 136 l-1
105 -31 -6 c-42 -9 -131 -51 -182 -86 -53 -36 -128 -114 -151 -156 -21 -39
-19 -40 -165 33 l-107 54 32 52 c41 67 155 182 232 235 107 72 274 139 358
142 14 1 17 11 17 60 l0 58 -92 7 c-244 18 -534 117 -755 259 l-70 45 -46 -42
-45 -43 30 -44 c44 -64 93 -174 113 -254 16 -64 24 -261 12 -305 -2 -8 -7 -32
-12 -53 -4 -20 -11 -39 -15 -42 -8 -5 -258 60 -267 68 -2 2 0 15 5 28 14 39
15 180 1 234 -19 79 -66 178 -81 169 -6 -4 -37 -31 -67 -60 -31 -29 -74 -68
-95 -88 l-39 -35 -36 31 c-86 74 -161 150 -155 159 5 8 53 55 153 148 25 22
43 42 40 44 -17 14 -91 41 -155 57 -89 23 -182 25 -271 7 l-63 -14 -16 51
c-10 28 -28 80 -41 116 -12 36 -23 70 -23 77 0 19 155 46 265 46 164 1 344
-49 477 -131 l33 -20 44 37 44 38 -39 42 c-95 103 -196 256 -257 390 -26 58
-83 213 -85 234 0 4 -6 33 -12 65 -7 31 -13 66 -15 77 -4 17 -11 20 -57 19
-29 -1 -58 -3 -63 -3 -6 -1 -18 -31 -28 -67 -50 -193 -207 -395 -378 -489
l-46 -25 -67 110 c-36 61 -66 112 -66 113 0 2 25 21 56 42 99 68 179 172 224
289 l10 26 -151 0 -150 0 3 133 3 132 115 2 c63 0 130 2 147 2 l33 1 -20 51
c-44 111 -152 235 -247 284 -21 10 -39 20 -41 21 -2 1 115 222 123 232 5 6 91
-43 144 -81 81 -60 165 -149 217 -233 44 -70 104 -218 104 -256 0 -10 3 -19 8
-19 29 -5 112 -4 113 0 1 3 3 21 5 39 8 103 47 280 83 377 45 121 129 275 205
375 l44 58 -43 42 -43 43 -104 -51 c-141 -69 -250 -95 -403 -95 -66 0 -133 2
-150 5 -80 16 -95 21 -95 31 0 10 70 239 74 244 1 2 18 -2 37 -7 52 -16 207
-13 272 5 66 17 157 54 157 64 0 3 -46 48 -101 100 l-101 95 48 45 c27 24 72
66 101 93 l52 49 68 -65 c104 -98 137 -125 145 -120 15 10 48 84 63 142 25 97
23 186 -6 291 -3 11 28 25 116 52 66 21 128 38 137 38 35 2 64 -220 47 -349
-16 -113 -66 -242 -130 -336 l-28 -41 27 -24 c63 -55 58 -54 104 -16 108 87
256 173 406 233 128 52 387 116 425 106 4 -1 7 26 7 61 l0 63 -68 16 c-208 49
-411 182 -522 343 -40 58 -46 50 111 130 l106 54 11 -24 c28 -61 144 -160 242
-207 37 -17 97 -38 111 -38 5 0 9 60 9 134 l0 135 33 3 c26 2 138 2 232 -1z"/>
<path d="M2868 5242 c-57 -3 -62 -7 -60 -42 0 -3 3 -144 7 -315 4 -170 9 -355
10 -410 4 -153 4 -464 0 -520 -13 -190 -17 -315 -9 -316 128 -16 674 -27 784
-16 430 44 686 277 756 687 16 90 10 340 -10 420 -58 239 -209 401 -441 475
-42 13 -98 28 -124 32 -44 7 -793 11 -913 5z m802 -412 c31 -18 55 -42 77 -80
18 -29 31 -56 28 -58 -2 -2 1 -15 6 -29 15 -40 20 -97 23 -241 5 -200 -25
-316 -97 -379 -51 -45 -102 -56 -222 -48 -149 9 -148 9 -155 36 -7 24 -5 216
4 549 3 102 5 204 6 227 0 50 -1 50 170 49 104 -1 119 -4 160 -26z"/>
<path d="M5530 2181 l0 -289 33 1 32 2 5 210 c3 143 8 204 15 190 8 -18 68
-123 110 -195 8 -14 38 -66 66 -116 48 -87 52 -91 85 -91 30 0 34 4 35 26 0
14 1 143 1 286 l1 260 -35 3 -36 3 2 -205 c0 -114 -2 -206 -5 -206 -5 0 -181
303 -224 385 -7 13 -23 21 -48 23 l-37 3 0 -290z"/>
<path d="M5980 2182 l0 -288 175 0 175 0 0 41 0 41 -140 0 -140 -1 0 83 0 82
140 0 140 0 0 39 c0 22 -5 41 -12 43 -7 2 -71 4 -141 3 l-128 -1 3 81 3 80
138 0 137 0 0 43 0 42 -175 0 -175 0 0 -288z"/>
<path d="M6368 2434 c-2 -20 0 -38 6 -40 6 -2 40 -5 76 -7 l65 -2 0 -245 0
-245 35 0 35 0 0 247 0 248 73 -3 c39 -1 72 1 73 6 1 9 1 54 0 67 -1 6 -68 10
-180 10 l-179 0 -4 -36z"/>
<path d="M259 1668 c-6 -15 -3 -1415 2 -1423 8 -10 710 -12 784 -2 177 24 281
81 355 197 31 48 77 165 87 219 2 14 9 46 15 71 13 56 18 306 8 380 -15 102
-22 132 -41 192 -62 194 -186 303 -404 354 -29 7 -804 19 -806 12z m560 -259
c186 -3 260 -39 317 -154 43 -88 56 -160 57 -300 1 -179 -36 -309 -109 -382
-64 -64 -118 -76 -346 -78 l-188 -1 0 457 c0 293 4 459 10 461 5 2 40 2 77 1
38 -1 119 -2 182 -4z"/>
<path d="M1705 1158 c1 -282 5 -524 9 -538 3 -14 9 -41 12 -60 9 -52 62 -147
109 -195 45 -46 150 -103 205 -110 97 -14 204 -19 390 -19 l205 -1 0 130 0
129 -200 2 c-309 3 -373 20 -412 114 -23 54 -26 120 -27 607 l-1 453 -146 0
-147 0 3 -512z"/>
<path d="M3160 1655 c-164 -35 -303 -173 -381 -375 -11 -30 -20 -56 -19 -58 1
-2 -2 -18 -16 -82 -3 -14 -7 -81 -9 -150 -10 -312 83 -545 264 -665 48 -32
133 -64 186 -71 11 -1 47 -5 80 -10 65 -8 532 -13 552 -6 9 3 13 39 12 128 0
68 -3 125 -7 125 -4 1 -108 2 -232 3 -124 2 -238 6 -255 10 -16 3 -40 8 -52
11 -47 8 -109 43 -139 78 -36 40 -72 127 -76 184 l-3 38 382 3 383 2 -3 128
-2 127 -360 2 c-198 1 -370 2 -382 2 -17 1 -21 6 -18 24 2 12 6 44 10 71 16
129 103 217 227 231 24 3 152 5 284 5 l241 1 2 130 1 130 -307 -2 c-197 -1
-328 -6 -363 -14z"/>
<path d="M4054 953 l1 -718 140 0 140 0 0 507 c0 278 2 509 5 512 5 4 144
-254 391 -724 133 -254 150 -285 159 -290 7 -4 332 -6 350 -1 3 0 6 323 6 716
l0 715 -141 0 -140 0 0 -520 c0 -286 -2 -520 -5 -520 -3 0 -123 233 -267 518
l-261 517 -189 3 -189 2 0 -717z"/>
<path d="M5520 1593 c-1 -860 0 -1346 4 -1351 6 -10 734 -7 796 2 172 27 269
83 344 201 32 49 62 121 71 164 2 11 6 24 8 29 3 4 8 23 11 42 3 19 10 57 15
84 5 27 8 119 6 205 -2 140 -5 178 -20 246 -2 11 -5 25 -6 30 -1 6 -6 21 -11
35 -5 14 -11 32 -13 42 -10 49 -66 139 -119 192 -59 58 -165 118 -231 131 -16
3 -55 10 -85 15 -30 6 -216 10 -412 10 l-358 0 0 -77z m645 -187 c167 -16 232
-87 283 -306 8 -35 8 -258 -1 -300 -23 -117 -62 -197 -120 -244 -42 -34 -55
-39 -147 -54 -37 -6 -264 -8 -346 -3 -21 1 -21 2 -21 456 l0 454 141 3 c78 2
146 2 151 1 6 -1 33 -4 60 -7z"/>
</g>
</svg>
