<?xml version="1.0" encoding="UTF-8" standalone="no"?>
<svg
   data-noselect=""
   viewBox="0 0 299.99999 100"
   width="300"
   height="100"
   preserveAspectRatio="none"
   version="1.1"
   class="svg-canvas"
   id="svg66"
   sodipodi:docname="dlend.net.logo.svg"
   inkscape:version="1.1.2 (76b9e6a115, 2022-02-25)"
   xmlns:inkscape="http://www.inkscape.org/namespaces/inkscape"
   xmlns:sodipodi="http://sodipodi.sourceforge.net/DTD/sodipodi-0.dtd"
   xmlns="http://www.w3.org/2000/svg"
   xmlns:svg="http://www.w3.org/2000/svg">
  <sodipodi:namedview
     id="namedview68"
     pagecolor="#ffffff"
     bordercolor="#666666"
     borderopacity="1.0"
     inkscape:pageshadow="2"
     inkscape:pageopacity="0.0"
     inkscape:pagecheckerboard="true"
     showgrid="false"
     inkscape:zoom="2.8284271"
     inkscape:cx="166.34687"
     inkscape:cy="77.60497"
     inkscape:window-width="1848"
     inkscape:window-height="1009"
     inkscape:window-x="72"
     inkscape:window-y="34"
     inkscape:window-maximized="1"
     inkscape:current-layer="svg66"
     inkscape:snap-object-midpoints="true"
     units="px"
     width="300px" />
  <defs
     id="defs2" />
  <g
     id="shape_dAo2NnXjl4"
     transform="matrix(2.2688715,0,0,1.5679127,167.59381,-20.088235)"
     filter=""
     style="opacity:1">
    <g
       id="g27">
      <svg
         version="1.1"
         width="114.84"
         height="141.25999"
         viewBox="0 0 114.84 141.26"
         id="svg25">
        <g
           data-width="35.541518554688"
           transform="translate(19.939241)"
           id="g23">
          <path
             d="M 2.91,-16.01 H 0.96 v 13.74 h 1.97 v -10.21 l 6.89,10.21 h 1.94 V -16.01 H 9.8 V -5.8 Z"
             transform="translate(0,76.13)"
             fill="#7634a1"
             stroke="#7634a1"
             stroke-width="0.033"
             data-glyph-w="12.722958984375"
             data-glyph-h="20.537666015625"
             data-glyph-ascender="16.51482421875"
             data-glyph-descender="-4.022841796875"
             id="path17" />
          <path
             d="m 0.96,-16.01 h 9.82 v 1.96 H 2.93 v 3.93 h 7.85 v 1.96 H 2.93 v 3.93 h 7.85 v 1.96 H 0.96 Z"
             transform="translate(12.722959,76.13)"
             fill="#7634a1"
             stroke="#7634a1"
             stroke-width="0.033"
             data-glyph-w="11.35634765625"
             data-glyph-h="20.537666015625"
             data-glyph-ascender="16.51482421875"
             data-glyph-descender="-4.022841796875"
             id="path19" />
          <path
             d="M 4.74,-2.27 V -14.05 H 0.58 v -1.96 h 10.3 v 1.96 H 6.71 v 11.78 z"
             transform="translate(24.079307,76.13)"
             fill="#7634a1"
             stroke="#7634a1"
             stroke-width="0.033"
             data-glyph-w="11.462211914063"
             data-glyph-h="20.537666015625"
             data-glyph-ascender="16.51482421875"
             data-glyph-descender="-4.022841796875"
             id="path21" />
        </g>
      </svg>
    </g>
  </g>
  <g
     id="shape_V2Q1v97SSd"
     transform="matrix(0.91142082,0,0,1.0481787,43.223826,-193.86375)"
     filter=""
     style="opacity:1">
    <g
       id="g44">
      <svg
         version="1.1"
         width="469.07999"
         height="462.62"
         viewBox="0 0 469.08 462.62"
         id="svg42">
        <g
           data-width="211.70538"
           transform="translate(64.41731)"
           id="g40">
          <path
             d="m 4.37,0 v -42.87 h 18.19 q 6.81,0 10.54,1.35 v 0 q 6.88,2.51 9.19,9.19 v 0 q 1.73,5.14 1.73,10.99 v 0 q 0,5.79 -1.67,10.93 v 0 q -1.67,5.27 -5.52,7.77 v 0 Q 34.38,-1.09 31.46,-0.55 28.54,0 22.56,0 V 0 Z M 22.56,-35.22 H 13.5 v 27.57 h 9.06 q 5.98,0 8.29,-2.63 v 0 q 1.41,-1.67 2.28,-4.69 Q 34,-18 34,-21.4 v 0 q 0,-3.79 -1.03,-6.94 -1.03,-3.15 -2.7,-4.69 v 0 q -2.44,-2.19 -7.71,-2.19 z"
             transform="translate(0,253.81)"
             fill="#7634a1"
             stroke="#7634a1"
             stroke-width="0.107"
             data-glyph-w="46.01732"
             data-glyph-h="64.27"
             data-glyph-ascender="55.20793"
             data-glyph-descender="-9.06207"
             id="path30" />
          <path
             d="m 3.86,-18.77 v -24.1 h 9.06 v 24.1 q 0.19,4.57 0.38,6.04 v 0 q 0.45,2.96 2.83,4.02 2.38,1.06 8.36,1.06 v 0 h 8.74 V 0 h -9.71 q -6.87,0 -9.96,-0.77 v 0 q -7.07,-2.06 -9,-9 v 0 q -0.7,-2.7 -0.7,-9 z"
             transform="translate(46.01732,253.81)"
             fill="#7634a1"
             stroke="#7634a1"
             stroke-width="0.107"
             data-glyph-w="34.19164"
             data-glyph-h="64.27"
             data-glyph-ascender="55.20793"
             data-glyph-descender="-9.06207"
             id="path32" />
          <path
             d="m 21.14,-42.87 h 15.37 v 7.65 H 24.62 q -4.63,0 -6.75,0.64 -2.12,0.65 -3.54,2.51 v 0 q -0.96,1.28 -1.32,2.57 -0.35,1.29 -0.61,4.37 v 0 h 24.11 v 7.65 H 12.4 q 0.52,5.53 3.28,7.68 2.77,2.15 9.39,2.15 v 0 H 36.51 V 0 H 24.62 Q 19.8,0 16.13,-0.58 v 0 Q 10.35,-1.54 6.94,-5.66 v 0 q -4.88,-5.91 -4.88,-16 v 0 q 0,-11.18 6.87,-17.42 v 0 q 2.38,-2.12 5.05,-2.95 2.67,-0.84 7.16,-0.84 z"
             transform="translate(80.20896,253.81)"
             fill="#7634a1"
             stroke="#7634a1"
             stroke-width="0.107"
             data-glyph-w="39.33324"
             data-glyph-h="64.27"
             data-glyph-ascender="55.20793"
             data-glyph-descender="-9.06207"
             id="path34" />
          <path
             d="M 30.59,0 13.11,-31.43 V 0 H 4.37 v -42.87 h 11.7 l 17.03,31.94 v -31.94 h 8.68 V 0 Z"
             transform="translate(119.5422,253.81)"
             fill="#7634a1"
             stroke="#7634a1"
             stroke-width="0.107"
             data-glyph-w="46.14586"
             data-glyph-h="64.27"
             data-glyph-ascender="55.20793"
             data-glyph-descender="-9.06207"
             id="path36" />
          <path
             d="m 4.37,0 v -42.87 h 18.19 q 6.81,0 10.54,1.35 v 0 q 6.88,2.51 9.19,9.19 v 0 q 1.73,5.14 1.73,10.99 v 0 q 0,5.79 -1.67,10.93 v 0 q -1.67,5.27 -5.52,7.77 v 0 Q 34.38,-1.09 31.46,-0.55 28.54,0 22.56,0 V 0 Z M 22.56,-35.22 H 13.5 v 27.57 h 9.06 q 5.98,0 8.29,-2.63 v 0 q 1.41,-1.67 2.28,-4.69 Q 34,-18 34,-21.4 v 0 q 0,-3.79 -1.03,-6.94 -1.03,-3.15 -2.7,-4.69 v 0 q -2.44,-2.19 -7.71,-2.19 z"
             transform="translate(165.68806,253.81)"
             fill="#7634a1"
             stroke="#7634a1"
             stroke-width="0.107"
             data-glyph-w="46.01732"
             data-glyph-h="64.27"
             data-glyph-ascender="55.20793"
             data-glyph-descender="-9.06207"
             id="path38" />
        </g>
      </svg>
    </g>
  </g>
  <g
     id="g2158"
     transform="matrix(0.78851264,0,0,0.81770005,-267.40378,-157.63992)">
    <g
       id="g11"
       transform="matrix(0.59979317,0,0,0.59979317,342.07894,196.98597)">
      <path
         d="M 96.7,0 C 43.3,0 0,43.3 0,96.7 c 0,53.4 43.3,96.7 96.7,96.7 53.4,0 96.7,-43.3 96.7,-96.7 C 193.4,43.3 150.1,0 96.7,0 Z m 52,137.6 c 8.2,-5.9 18.7,-7.8 28.5,-4.9 l -3,10.3 c -6.1,-1.8 -12.6,-0.9 -17.9,2.4 l 7.9,7.9 -7.6,7.6 -7.9,-7.9 c -3.3,5.5 -4.2,12.2 -2.1,18.6 l -10.2,3.3 c -3.3,-10.2 -1.5,-21.1 4.6,-29.6 l -3.2,-3.2 c -9.1,8.3 -20.6,13.8 -33.4,15.4 v 4.9 c 9.9,1.6 18.7,7.7 23.7,16.7 l -9.3,5.2 c -3.1,-5.6 -8.3,-9.5 -14.3,-11 v 11.2 H 93.8 v -11.1 c -6.3,1.5 -11.6,5.7 -14.6,11.6 l -9.5,-4.9 c 4.9,-9.5 13.9,-16 24.2,-17.7 v -4.5 C 80.9,157.3 69,152.7 59.3,145.2 l -3.5,3.5 c 5.9,8.2 7.8,18.7 4.9,28.6 l -10.3,-3 c 1.8,-6.1 0.8,-12.6 -2.4,-17.9 l -7.9,7.9 -7.6,-7.6 7.9,-7.9 c -5.5,-3.3 -12.3,-4.2 -18.6,-2.1 l -3.3,-10.2 c 10.2,-3.3 21.1,-1.5 29.6,4.6 l 3.2,-3.2 C 43,128.8 37.4,117.3 35.8,104.5 H 31 c -1.6,9.9 -7.7,18.7 -16.7,23.7 l -5.2,-9.3 c 5.6,-3.1 9.5,-8.3 11,-14.3 H 8.9 V 93.8 H 20.1 C 18.6,87.5 14.4,82.2 8.5,79.2 l 4.8,-9.5 c 9.6,4.9 16,13.8 17.7,24.2 h 4.5 C 36.1,80.9 40.7,69 48.2,59.3 l -3.5,-3.5 c -5.6,4 -12.4,6.2 -19.3,6.2 -3.1,0 -6.2,-0.4 -9.2,-1.3 l 3,-10.3 c 6.1,1.8 12.6,0.8 17.9,-2.4 l -7.9,-7.9 7.6,-7.6 7.9,7.9 c 3.4,-5.5 4.2,-12.2 2.1,-18.6 L 57,18.5 c 3.3,10.2 1.5,21.1 -4.6,29.6 l 3.2,3.2 C 64.7,43 76.2,37.5 89,35.9 V 31 C 79.1,29.4 70.3,23.3 65.4,14.3 l 9.3,-5.2 c 3.1,5.6 8.3,9.5 14.3,11 V 8.9 h 10.7 v 11.2 c 6.3,-1.5 11.6,-5.7 14.7,-11.6 l 9.5,4.8 c -4.8,9.6 -13.8,16 -24.2,17.7 v 4.5 c 13,0.6 24.9,5.2 34.6,12.7 l 3.5,-3.5 C 131.9,36.5 130,26 132.9,16.2 l 10.3,3 c -1.8,6.1 -0.9,12.6 2.4,17.9 l 7.9,-7.9 7.6,7.5 -7.9,7.9 c 5.5,3.4 12.3,4.2 18.6,2.1 l 3.3,10.2 c -3.4,1.1 -6.9,1.6 -10.3,1.6 -6.9,0 -13.6,-2.1 -19.3,-6.3 l -3.2,3.2 c 8.3,9.1 13.8,20.6 15.4,33.4 h 5 c 1.6,-9.9 7.7,-18.7 16.7,-23.7 l 5.2,9.4 c -5.6,3.1 -9.5,8.3 -11,14.3 h 11.2 v 10.7 h -11.2 c 1.5,6.3 5.7,11.6 11.6,14.7 l -4.8,9.5 c -9.6,-4.8 -16,-13.8 -17.7,-24.2 h -4.5 c -0.6,13 -5.2,24.9 -12.7,34.6 z"
         fill="#7634a1"
         stroke-width="0"
         id="path9" />
    </g>
    <g
       id="shape_5HvDZhJTIb"
       transform="translate(319.99,40.036935)"
       filter=""
       style="opacity:1">
      <g
         id="g53">
        <svg
           version="1.1"
           width="280.04001"
           height="432.078"
           viewBox="0 0 280.04 432.078"
           id="svg51">
          <g
             data-width="39.90665"
             transform="translate(60.056675)"
             id="g49">
            <path
               d="m 21.12,-39.07 q 8.58,0 13.18,4.65 4.59,4.66 4.59,13.42 v 0 q 0,10.38 -5.34,15.96 -5.35,5.58 -15.31,5.58 v 0 Q 12,0.54 3.6,0 V 0 L 4.2,-11.4 3.6,-38.83 Z m -0.6,30.67 q 2.82,0 4.29,-2.25 1.47,-2.25 1.47,-7.41 v 0 q 0,-4.38 -0.6,-6.9 -0.6,-2.52 -1.92,-3.63 -1.32,-1.11 -3.66,-1.11 v 0 q -2.28,0 -4.5,0.24 v 0 l -0.42,16.86 0.12,3.72 q 3.6,0.48 5.22,0.48 z"
               transform="translate(0,234.039)"
               fill="#7634a1"
               stroke="#7634a1"
               stroke-width="0.1"
               data-glyph-w="39.90665"
               data-glyph-h="72.012"
               data-glyph-ascender="54.009"
               data-glyph-descender="-18.003"
               id="path47" />
          </g>
        </svg>
      </g>
    </g>
  </g>
  <defs
     id="defs62">
    <pattern
       id="wm_tile"
       x="0"
       y="0"
       width="20%"
       height="27%"
       patternunits="objectBoundingBox">
      <g
         id="wm_lm"
         transform="translate(-188.000000, -323.000000)"
         fill="#cccccc">
        <text
           font-size="15"
           transform="translate(270.490979, 373.245789) rotate(-390.000000) translate(-270.490979, -373.245789)"
           id="text58"><tspan
             x="187.490979"
             opacity=".3"
             y="378.245789"
             id="tspan56">copyright © copyright © </tspan></text>
      </g>
    </pattern>
  </defs>
</svg>
